<?xml version="1.0" encoding="UTF-8" standalone="no"?>
<!DOCTYPE svg PUBLIC "-//W3C//DTD SVG 1.1//EN"
 "http://www.w3.org/Graphics/SVG/1.1/DTD/svg11.dtd">
<!-- Generated by graphviz version 2.43.0 (0)
 -->
<!-- Title: a_graph Pages: 1 -->
<svg width="464pt" height="119pt"
 viewBox="0.00 0.00 464.00 119.00" xmlns="http://www.w3.org/2000/svg" xmlns:xlink="http://www.w3.org/1999/xlink">
<g id="graph0" class="graph" transform="scale(1 1) rotate(0) translate(4 115)">
<title>a_graph</title>
<polygon fill="white" stroke="transparent" points="-4,4 -4,-115 460,-115 460,4 -4,4"/>
<!-- T1162 -->
<g id="node1" class="node">
<title>T1162</title>
<polygon fill="none" stroke="#0058ad" points="0,-81.5 0,-110.5 456,-110.5 456,-81.5 0,-81.5"/>
<text text-anchor="middle" x="114" y="-92.3" font-family="Times,serif" font-size="14.00" fill="#0058ad">r 44 [1 2 3 4 5 6 7 8 9 10 11 12 13 14]</text>
<polyline fill="none" stroke="#0058ad" points="228,-81.5 228,-110.5 "/>
<text text-anchor="middle" x="342" y="-92.3" font-family="Times,serif" font-size="14.00" fill="#0058ad">r 44 [1 2 3 4 5 6 7 8 9 10 11 12 13 14]</text>
</g>
<!-- T1159 -->
<g id="node2" class="node">
<title>T1159</title>
<polygon fill="none" stroke="#0058ad" points="123.5,-0.5 123.5,-29.5 180.5,-29.5 180.5,-0.5 123.5,-0.5"/>
<text text-anchor="middle" x="152" y="-11.3" font-family="Times,serif" font-size="14.00" fill="#0058ad">a 44 15</text>
</g>
<!-- T1162&#45;&gt;T1159 -->
<g id="edge1" class="edge">
<title>T1162:f0&#45;&gt;T1159:f0</title>
<path fill="none" stroke="#5b00c0" d="M114,-81C114,-65.15 122.34,-49.67 131.2,-37.69"/>
<polygon fill="#5b00c0" stroke="#5b00c0" points="134.13,-39.63 137.63,-29.63 128.66,-35.26 134.13,-39.63"/>
<text text-anchor="middle" x="132.5" y="-51.8" font-family="Times,serif" font-size="14.00" fill="#5b00c0">rw</text>
</g>
<!-- T1159&#45;&gt;T1162 -->
<g id="edge2" class="edge">
<title>T1159&#45;&gt;T1162</title>
<path fill="none" stroke="#0050c0" d="M165.09,-29.6C176.81,-41.79 194.18,-59.85 207.71,-73.9"/>
<polygon fill="#0050c0" stroke="#0050c0" points="205.31,-76.46 214.76,-81.24 210.35,-71.61 205.31,-76.46"/>
<text text-anchor="middle" x="200.5" y="-51.8" font-family="Times,serif" font-size="14.00" fill="#0050c0">rt</text>
</g>
</g>
</svg>
